<?xml version="1.0" encoding="UTF-8"?>
<svg width="1200" height="600" version="1.1" viewBox="0 0 317.49 158.75" xmlns="http://www.w3.org/2000/svg"><title>Ayd?</title><rect x="-.006" width="317.5" height="158.75" fill="#f6f5f8" stroke-linecap="square" stroke-width="46.431"/><g transform="matrix(1.6133 0 0 1.6133 -551.91 241.24)"><path d="m418.02-80.921c-2.4803-0.08-4.4025 0.10537-6.7182 0-5.2121-12.275-1.9323-14.893-15.63-14.773-13.698 0.11996-10.659 3.1504-15.527 14.773-3.3389-0.0945-4.8337 0.0429-6.684 0 7.6995-18.241 13.297-33.717 19.88-50.49 1.1811-0.0438 2.9777-0.0309 4.9702 0 6.394 16.163 11.443 31.375 19.709 50.49zm-19.092-33.077c-4.7182-12.361-1.7199-13.087-6.5809 0-6.1892 16.663-5.7623 13.261 3.603 13.31 9.3653 0.0497 9.0148 2.505 2.9779-13.31z" style="shape-inside:url(#rect1145);white-space:pre"/><path d="m448.23-116.05c-18.051 37.296-12.375 44.91-30.616 51.571-1.1228-3.3501-0.79911-3.9419-1.8087-6.5777 7.9586-0.97693 10.722-7.5067 10.97-10.843 0.24807-3.3361-5.7294-16.848-14.264-34.151 2.4043 0.0857 4.8095 0.19291 7.202 0 14.457 32.239 8.4084 30.58 21.642 0 2.4159 0.14974 4.7619 0.21487 6.8763 0z" style="white-space:pre"/><g transform="translate(99.226,-102.63)"><path d="m375.4-28.315c4.2704 1.1408 21.168-3.5086 27.399 3.2563 7.479 8.1199 6.9158 21.829-0.349 27.317-16.379 12.373-23.711-12.97-21.327 19.224-2.1858-0.28784-3.4995-0.032-5.7232 0-0.33623-17.419 1.4528-32.875 0-49.798zm9.9904 26.893c3.3149 2.9463 9.5842 3.0501 13.302-0.30968 5.2638-4.7575 4.7038-14.739 0.094-19.347-4.755-4.7536-11.882-2.7459-15.149 1.1228-4.0037 4.7413-2.8849 14.412 1.7534 18.534z" fill="#ff2d00" style="white-space:pre"/><path d="m381.13 21.482c-10.318-0.63695-21.168 3.5086-27.399-3.2563-7.479-8.1199-6.9158-21.829 0.349-27.317 16.379-12.373 23.711 12.97 21.327-19.224 2.1858 0.28784 3.6198-0.22229 5.7232 0 0.33624 17.419-1.1652 32.855 0 49.798zm-9.9904-26.893c-3.3149-2.9463-9.5842-3.0501-13.302 0.30968-5.2638 4.7575-4.7038 14.739-0.094 19.347 4.755 4.7536 11.882 2.7459 15.149-1.1228 4.0037-4.7413 2.8849-14.412-1.7534-18.534z" style="white-space:pre"/><path d="m398.14-1.4478c5.94-5.1764 4.7942-14.623 0.89056-19.285s-11.974-3.2924-15.77 1.2751c0.23183-2.7795-0.0817-6.8858 0.0247-9.0315 1.3369 0.0684 13.739-2.7895 19.82 3.6332s8.2779 21.166-1.5201 27.793-13.868-0.6747-12.947 11.129c-1.9747-0.25446-3.4944 0.25665-5.3042-0.15668-0.46645-16.835 8.8667-10.181 14.807-15.357z" fill-opacity=".99966" style="white-space:pre"/><path d="m383.39 16.357c2.2053 0.29792 3.0544-0.29047 5.3299 0.06023-0.044 1.1588 0.32579 3.4145 0.31633 4.9686-1.8329-0.0747-3.4978-0.3172-5.7232 0 0.18376-1.8267 0.0468-3.5104 0.0769-5.0288z" fill-rule="evenodd"/></g></g></svg>
