<?xml version="1.0" encoding="UTF-8"?>

<svg xmlns="http://www.w3.org/2000/svg" version="1.1" width="1200" height="1200" viewBox="0 0 1200 1200">
  <rect height="1200" width="1200" fill="#fcf8f5" />

  <g fill="none" stroke="#dcc8c8" transform="matrix(40.923788,0,0,40.923788,276.22688,231.6859)">
    <path d="M 1,1 L 7,7 L 0,14 M 0,4 L 7,11 L 1,17" />
    <path d="M 15,1 L 9,7 L 16,14 M 16,4 L 9,11 L 15,17" stroke-width="0.5" />
  </g>

  <path fill="none" stroke="#402020" stroke-width="6" d="M 230,60 H 60 V 230 M 970,60 H 1140 V 230 M 1140,970 V1140 H 970 M 60,970 V 1140 H 230" />

  <path fill="#402020" d="m 100.00002,701.67074 h 56.16597 c 42.64455,0 70.72753,-18.7219 70.72753,-55.38586 0,-26.0027 -16.12173,-41.34438 -40.5643,-45.50484 v -1.29999 c 18.98199,-5.72076 29.12308,-21.84245 29.12308,-41.34461 0,-31.98331 -24.96266,-46.0248 -63.18672,-46.0248 H 100.00002 Z M 115.6017,594.79941 V 524.852 h 33.28351 c 33.54358,0 50.96542,9.361 50.96542,35.10382 0,21.58215 -15.0816,34.84359 -52.52557,34.84359 z m 0,93.86999 v -81.38859 h 36.9239 c 37.70403,0 59.0263,12.48119 59.0263,39.00407 0,29.38315 -22.3624,42.38452 -59.0263,42.38452 z" />
  <path fill="#402020" d="m 288.36705,705.05119 c 4.94054,0 7.54079,-0.78004 10.1411,-1.5603 l -2.34027,-11.96123 c -2.86031,0.51994 -3.90041,0.51994 -4.94054,0.51994 -3.64037,0 -6.24066,-2.86026 -6.24066,-9.36083 V 494.94881 h -15.0816 V 681.1287 c 0,16.12171 5.98064,23.92249 18.46197,23.92249 z" />
  <path fill="#402020" d="m 374.54321,705.05119 c 17.68188,0 34.32365,-9.62093 48.36516,-21.06222 h 0.51994 l 1.5602,17.68177 h 12.74145 v -87.88935 c 0,-30.68313 -11.70125,-54.34575 -44.72479,-54.34575 -22.62241,0 -41.86443,10.92112 -52.52558,18.20196 l 6.76073,10.92111 c 9.621,-7.2806 25.48271,-15.86163 43.68465,-15.86163 26.26279,0 32.24342,21.32231 31.72336,41.86456 -61.1065,7.02074 -88.40941,21.58216 -88.40941,52.26551 0,25.74262 17.94193,38.22404 40.30429,38.22404 z m 3.12034,-12.74128 c -15.34165,0 -28.34303,-7.28082 -28.34303,-26.2628 0,-21.32229 18.72202,-34.06379 73.32781,-40.30427 v 44.98469 c -16.38175,14.30156 -29.64316,21.58238 -44.98478,21.58238 z" />
  <path fill="#402020" d="m 481.68542,701.67074 h 15.08159 V 597.91976 c 16.12173,-16.64165 27.56297,-24.96259 43.68471,-24.96259 21.32226,0 30.42319,13.26144 30.42319,42.12441 v 86.58916 h 15.0816 v -88.66937 c 0,-35.62386 -13.26138,-53.56573 -42.12443,-53.56573 -18.98208,0 -33.28359,10.92112 -47.32509,24.70273 h -0.52106 l -1.82032,-21.06219 h -12.48138 z" />
  <path fill="#402020" d="m 631.69977,701.67074 h 15.08159 v -37.44399 l 29.90316,-35.36378 44.72481,72.80777 h 16.64176 l -52.52563,-83.72889 45.24483,-54.86567 h -17.16184 l -66.30705,81.64864 h -0.52106 V 494.94881 h -15.08158 z" />
  <path fill="#402020" d="m 817.56132,705.05119 c 6.24067,0 15.08159,-2.34032 23.14248,-5.2006 l -3.64007,-11.70114 c -4.94052,2.08022 -11.70128,3.90037 -16.90186,3.90037 -18.46191,0 -23.14243,-11.44129 -23.14243,-28.8632 v -87.36918 h 39.78422 v -12.74126 h -39.78422 v -40.04435 h -12.74133 l -1.82034,40.04435 -22.10236,1.29996 v 11.4413 h 21.58232 v 86.3293 c 0,25.74261 8.32089,42.90445 35.62378,42.90445 z" />
  <path fill="#402020" d="m 915.9764,705.05119 c 17.68193,0 34.32369,-9.62093 48.36517,-21.06222 h 0.52105 l 1.56037,17.68177 h 12.74138 v -87.88935 c 0,-30.68313 -11.70129,-54.34575 -44.7248,-54.34575 -22.6224,0 -41.8645,10.92112 -52.52558,18.20196 l 6.76071,10.92111 c 9.621,-7.2806 25.48272,-15.86163 43.68464,-15.86163 26.26279,0 32.24343,21.32231 31.72334,41.86456 -61.10645,7.02074 -88.40934,21.58216 -88.40934,52.26551 0,25.74262 17.9419,38.22404 40.30425,38.22404 z m 3.12015,-12.74128 c -15.34166,0 -28.343,-7.28082 -28.343,-26.2628 0,-21.32229 18.72195,-34.06379 73.32774,-40.30427 v 44.98469 c -16.38175,14.30156 -29.64311,21.58238 -44.98474,21.58238 z" />
  <path fill="#402020" d="m 1031.8729,701.67074 h 15.0817 v -93.08972 c 10.141,-25.74285 24.9627,-34.84382 37.184,-34.84382 5.4603,0 8.0608,0.51996 12.7413,2.34032 L 1100,562.55599 c -4.4205,-2.34031 -8.5809,-3.12035 -14.0414,-3.12035 -16.1217,0 -29.9032,11.96125 -39.2643,29.38315 h -0.521 l -1.8203,-25.74261 h -12.4814 z" />
</svg>
