<?xml version="1.0" encoding="UTF-8"?>

<svg xmlns="http://www.w3.org/2000/svg" version="1.1" viewBox="0 0 1280 640" height="640" width="1280">
  <rect width="1280" height="640" fill="#fcf8f5" />

  <g fill="none" stroke="#dcc8c8" transform="matrix(40.923788,0,0,40.923788,316.22688,-48.31409)">
    <path d="M 1,1 L 7,7 L 0,14 M 0,4 L 7,11 L 1,17" />
    <path d="M 15,1 L 9,7 L 16,14 M 16,4 L 9,11 L 15,17" stroke-width="0.5" />
  </g>

  <path fill="none" stroke="#402020" stroke-width="6" d="M 230,60 h -170 v 170 M 1044.7134,60 h 170 v 170 M 1214.7134,409.3303 v 170 h -170 M 60,409.3303 v 170 h 170 " />

  <path fill="#402020" d="m 150,421.67074 h 56.16597 c 42.64455,0 70.72753,-18.7219 70.72753,-55.38586 0,-26.0027 -16.12173,-41.34438 -40.5643,-45.50484 v -1.29999 c 18.98199,-5.72076 29.12309,-21.84245 29.12309,-41.34461 0,-31.98331 -24.96267,-46.0248 -63.18673,-46.0248 H 150 Z M 165.60168,314.79941 V 244.852 h 33.28351 c 33.54358,0 50.96542,9.361 50.96542,35.10382 0,21.58215 -15.0816,34.84359 -52.52557,34.84359 z m 0,93.86999 v -81.38859 h 36.92391 c 37.70403,0 59.0263,12.48119 59.0263,39.00407 0,29.38315 -22.36241,42.38452 -59.0263,42.38452 z" />
  <path fill="#402020" d="m 338.36703,425.05119 c 4.94054,0 7.54079,-0.78004 10.1411,-1.5603 l -2.34027,-11.96123 c -2.86031,0.51994 -3.90041,0.51994 -4.94054,0.51994 -3.64037,0 -6.24065,-2.86026 -6.24065,-9.36083 V 214.94881 h -15.0816 V 401.1287 c 0,16.12171 5.98064,23.92249 18.46196,23.92249 z" />
  <path fill="#402020" d="m 424.5432,425.05119 c 17.68187,0 34.32364,-9.62093 48.36516,-21.06222 h 0.51994 l 1.5602,17.68177 h 12.74145 v -87.88935 c 0,-30.68313 -11.70125,-54.34575 -44.72479,-54.34575 -22.62241,0 -41.86443,10.92112 -52.52558,18.20196 l 6.76073,10.92111 c 9.621,-7.2806 25.48271,-15.86163 43.68465,-15.86163 26.26279,0 32.24342,21.32231 31.72336,41.86456 -61.1065,7.02074 -88.40941,21.58216 -88.40941,52.26551 0,25.74262 17.94193,38.22404 40.30429,38.22404 z m 3.12034,-12.74128 c -15.34166,0 -28.34303,-7.28082 -28.34303,-26.2628 0,-21.32229 18.72201,-34.06379 73.32781,-40.30427 v 44.98469 c -16.38175,14.30156 -29.64317,21.58238 -44.98478,21.58238 z" />
  <path fill="#402020" d="m 531.6854,421.67074 h 15.08159 V 317.91976 c 16.12174,-16.64165 27.56298,-24.96259 43.68472,-24.96259 21.32226,0 30.42319,13.26144 30.42319,42.12441 v 86.58916 h 15.0816 v -88.66937 c 0,-35.62386 -13.26139,-53.56573 -42.12443,-53.56573 -18.98208,0 -33.28359,10.92112 -47.3251,24.70273 h -0.52105 l -1.82032,-21.06219 h -12.48138 z" />
  <path fill="#402020" d="m 681.69975,421.67074 h 15.08159 v -37.44399 l 29.90316,-35.36378 44.72481,72.80777 h 16.64176 l -52.52563,-83.72889 45.24483,-54.86567 h -17.16184 l -66.30705,81.64864 h -0.52106 V 214.94881 h -15.08158 z" />
  <path fill="#402020" d="m 867.56131,425.05119 c 6.24067,0 15.08159,-2.34032 23.14248,-5.2006 l -3.64008,-11.70114 c -4.94052,2.08022 -11.70128,3.90037 -16.90186,3.90037 -18.46191,0 -23.14243,-11.44129 -23.14243,-28.8632 v -87.36918 h 39.78422 v -12.74126 h -39.78421 v -40.04435 h -12.74134 l -1.82033,40.04435 -22.10236,1.29996 v 11.4413 h 21.58232 v 86.3293 c 0,25.74261 8.32088,42.90445 35.62378,42.90445 z" />
  <path fill="#402020" d="m 965.97639,425.05119 c 17.68193,0 34.32371,-9.62093 48.36521,-21.06222 h 0.521 l 1.5604,17.68177 h 12.7414 v -87.88935 c 0,-30.68313 -11.7013,-54.34575 -44.72484,-54.34575 -22.6224,0 -41.8645,10.92112 -52.52558,18.20196 l 6.76071,10.92111 c 9.621,-7.2806 25.48272,-15.86163 43.68464,-15.86163 26.26277,0 32.24347,21.32231 31.72337,41.86456 -61.10648,7.02074 -88.40937,21.58216 -88.40937,52.26551 0,25.74262 17.9419,38.22404 40.30425,38.22404 z m 3.12015,-12.74128 c -15.34167,0 -28.343,-7.28082 -28.343,-26.2628 0,-21.32229 18.72195,-34.06379 73.32776,-40.30427 v 44.98469 c -16.38177,14.30156 -29.64313,21.58238 -44.98476,21.58238 z" />
  <path fill="#402020" d="m 1081.8729,421.67074 h 15.0817 v -93.08972 c 10.141,-25.74285 24.9627,-34.84382 37.184,-34.84382 5.4603,0 8.0608,0.51996 12.7413,2.34032 L 1150,282.55599 c -4.4205,-2.34031 -8.5809,-3.12035 -14.0414,-3.12035 -16.1217,0 -29.9032,11.96125 -39.2643,29.38315 h -0.521 l -1.8203,-25.74261 h -12.4814 z" />
</svg>
