<?xml version="1.0" encoding="UTF-8"?>

<svg xmlns="http://www.w3.org/2000/svg" version="1.1" viewBox="-2 -1.5 24.410948 4.6875" height="60" width="312.46014">
  <g aria-label="Blanktar" style="fill:#402020">
    <path d="m 3.78125,2.6584165 h 1.0024754 c 0.7611388,0 1.2623765,-0.3341585 1.2623765,-0.9885521 0,-0.464109 -0.2877476,-0.73793334 -0.72401,-0.81219078 v -0.0232055 c 0.3387995,-0.10210398 0.519802,-0.38985155 0.519802,-0.73793329 0,-0.57085406 -0.4455446,-0.82147292 -1.1277848,-0.82147292 H 3.78125 Z M 4.0597154,0.75092855 v -1.24845318 h 0.5940595 c 0.5987006,0 0.9096536,0.16707923 0.9096536,0.62654714 0,0.38521046 -0.2691832,0.62190604 -0.9375001,0.62190604 z m 0,1.67543345 V 0.97370087 h 0.6590348 c 0.672958,0 1.0535274,0.22277233 1.0535274,0.69616353 0,0.5244431 -0.3991337,0.7564976 -1.0535274,0.7564976 z" />
    <path d="m 7.1433087,2.7187507 c 0.088181,0 0.1345916,-0.013923 0.1810025,-0.027847 L 7.2825414,2.477414 c -0.051052,0.00928 -0.069616,0.00928 -0.088181,0.00928 -0.064975,0 -0.1113862,-0.051052 -0.1113862,-0.1670793 V -1.03125 H 6.8137913 v 3.3230204 c 0,0.2877476 0.1067451,0.4269803 0.3295174,0.4269803 z" />
    <path d="m 8.6814194,2.7187507 c 0.3155941,0 0.6126238,-0.1717203 0.8632427,-0.3759283 h 0.00928 l 0.027847,0.3155941 H 9.8092042 V 1.0897281 c 0,-0.54764859 -0.208849,-0.96998777 -0.7982675,-0.96998777 -0.4037748,0 -0.7472154,0.19492577 -0.9375001,0.32487629 L 8.1941049,0.6395424 C 8.3658252,0.50959188 8.6489317,0.35643591 8.973808,0.35643591 c 0.4687501,0 0.5754952,0.38056937 0.566213,0.74721549 -1.0906561,0.1253094 -1.5779706,0.3852105 -1.5779706,0.9328591 0,0.4594679 0.3202352,0.6822402 0.719369,0.6822402 z m 0.055693,-0.2274134 c -0.2738243,0 -0.5058788,-0.1299505 -0.5058788,-0.4687501 0,-0.3805694 0.3341585,-0.6079828 1.3087874,-0.7193689 V 2.1061268 C 9.2476323,2.3613868 9.0109367,2.4913373 8.7371124,2.4913373 Z" />
    <path d="m 10.593741,2.6584165 h 0.269183 V 0.80662163 C 11.150672,0.50959188 11.35488,0.361077 11.642628,0.361077 c 0.380569,0 0.543007,0.23669559 0.543007,0.7518566 v 1.5454829 h 0.269183 V 1.0758048 c 0,-0.63582927 -0.236695,-0.95606447 -0.751856,-0.95606447 -0.3388,0 -0.59406,0.19492577 -0.844679,0.44090354 h -0.0093 l -0.03249,-0.37592829 h -0.222773 z" />
    <path d="m 13.271264,2.6584165 h 0.269183 V 1.9900996 l 0.533725,-0.6311883 0.798268,1.2995052 h 0.29703 L 14.231969,1.1639856 15.039519,0.18471558 H 14.733207 L 13.549729,1.6420178 h -0.0093 V -1.03125 h -0.269183 z" />
    <path d="m 16.588604,2.7187507 c 0.111386,0 0.269183,-0.04177 0.413057,-0.092822 l -0.06497,-0.2088491 c -0.08818,0.037129 -0.208849,0.069616 -0.301671,0.069616 -0.329517,0 -0.413057,-0.204208 -0.413057,-0.515161 V 0.41212899 h 0.710087 V 0.18471558 h -0.710087 v -0.71472784 h -0.227413 l -0.03249,0.71472784 -0.394493,0.0232055 v 0.20420796 h 0.385211 V 1.9529708 c 0,0.4594679 0.148515,0.7657799 0.635829,0.7657799 z" />
    <path d="m 18.34516,2.7187507 c 0.315595,0 0.612624,-0.1717203 0.863243,-0.3759283 h 0.0093 l 0.02785,0.3155941 h 0.227413 V 1.0897281 c 0,-0.54764859 -0.208849,-0.96998777 -0.798267,-0.96998777 -0.403775,0 -0.747216,0.19492577 -0.9375,0.32487629 l 0.120668,0.19492578 c 0.17172,-0.12995052 0.454827,-0.28310649 0.779703,-0.28310649 0.46875,0 0.575495,0.38056937 0.566213,0.74721549 -1.090656,0.1253094 -1.57797,0.3852105 -1.57797,0.9328591 0,0.4594679 0.320235,0.6822402 0.719368,0.6822402 z m 0.05569,-0.2274134 c -0.273825,0 -0.505879,-0.1299505 -0.505879,-0.4687501 0,-0.3805694 0.334158,-0.6079828 1.308787,-0.7193689 v 0.8029085 c -0.292389,0.25526 -0.529084,0.3852105 -0.802908,0.3852105 z" />
    <path d="m 20.413733,2.6584165 h 0.269184 V 0.99690632 c 0.181002,-0.4594679 0.445544,-0.62190605 0.663675,-0.62190605 0.09746,0 0.143874,0.009282 0.227414,0.0417698 l 0.05569,-0.24133668 c -0.0789,-0.0417698 -0.153156,-0.0556931 -0.250619,-0.0556931 -0.287748,0 -0.533725,0.21349013 -0.700805,0.52444316 h -0.0093 l -0.03249,-0.45946791 h -0.222773 z"/>
  </g>

  <g fill="none" stroke="#402020" transform="matrix(0.23380768,0,0,0.23380768,-1.1360865,-1.2605192)">
    <path d="M 1,1 L 7,7 L 0,14 M 0,4 L 7,11 L 1,17" />
    <path d="M 15,1 L 9,7 L 16,14 M 16,4 L 9,11 L 15,17" stroke-width="0.5" />
  </g>
</svg>
