<?xml version="1.0" encoding="UTF-8"?>
<svg width="480" height="320" version="1.1" viewBox="0 0 127 84.667" xmlns="http://www.w3.org/2000/svg"><g stroke-linecap="round"><rect x="4.0795" y="3.9542" width="118.84" height="76.758" fill="#eceeee" stroke="#000" stroke-width="1.3229"/><rect x="31.87" y="18.727" width="78.412" height="51.561" fill="#e0c3cb" stroke="#000" stroke-width="1.3229"/><g fill="#d3d2da" font-family="'Noto Sans CJK JP'" stroke="#000000" stroke-width=".26458"><text x="5.7248611" y="13.738406" font-size="9.9835px" style="line-height:90%" xml:space="preserve"><tspan x="5.7248611" y="13.738406" fill="#000000" stroke="none" stroke-width=".26458">画像</tspan></text><g font-size="5.919px"><text transform="rotate(90)" x="6.5414157" y="-36.592503" style="line-height:90%" xml:space="preserve"><tspan x="6.5414157" y="-36.592503" fill="#000000" stroke="none" stroke-width=".26458">Top</tspan></text><text transform="rotate(90)" x="36.756187" y="-115.92772" style="line-height:90%" xml:space="preserve"><tspan x="36.756187" y="-115.92772" fill="#000000" stroke="none" stroke-width=".26458">Height</tspan></text><text x="11.837429" y="26.39727" style="line-height:90%" xml:space="preserve"><tspan x="11.837429" y="26.39727" fill="#000000" stroke="none" stroke-width=".26458">Left</tspan></text><text x="63.903748" y="78.45359" style="line-height:90%" xml:space="preserve"><tspan x="63.903748" y="78.45359" fill="#000000" stroke="none" stroke-width=".26458">Width</tspan></text></g><text x="33.537277" y="28.563648" font-size="9.9835px" style="line-height:90%" xml:space="preserve"><tspan x="33.537277" y="28.563648" fill="#000000" stroke="none" stroke-width=".26458">取り出す部分</tspan></text></g><path d="m3.7372 20.919h27.736" fill="none" stroke="#000" stroke-width=".26458"/><path d="m34.124 3.9135v14.348" fill="none" stroke="#000" stroke-width=".26458"/><g transform="matrix(.96602 0 0 1.0217 1.0732 -1.5512)" fill="none" stroke="#000" stroke-width=".26632"><path d="m31.726 73.364h81.969"/><path d="m31.584 71.553v3.6211"/><path d="m113.8 71.553v3.6211"/></g><g transform="matrix(1.5954 0 0 1 -69.968 .012594)" fill="none" stroke="#000" stroke-width=".20947"><path d="m114.01 70.886h2.2795"/><path d="m114.01 18.164h2.2795"/><path d="m115.15 18.158v52.67"/></g></g></svg>
