<?xml version="1.0" encoding="UTF-8" standalone="no"?>
<svg
   xmlns:dc="http://purl.org/dc/elements/1.1/"
   xmlns:cc="http://creativecommons.org/ns#"
   xmlns:rdf="http://www.w3.org/1999/02/22-rdf-syntax-ns#"
   xmlns:svg="http://www.w3.org/2000/svg"
   xmlns="http://www.w3.org/2000/svg"
   id="svg916"
   version="1.1"
   width="1200"
   height="675"
   viewBox="0 0 1200 675">
  <metadata
     id="metadata922">
    <rdf:RDF>
      <cc:Work
         rdf:about="">
        <dc:format>image/svg+xml</dc:format>
        <dc:type
           rdf:resource="http://purl.org/dc/dcmitype/StillImage" />
        <dc:title></dc:title>
      </cc:Work>
    </rdf:RDF>
  </metadata>
  <defs
     id="defs920" />
  <rect
     fill="#fcf8f5"
     height="675"
     width="1200"
     id="rect240"
     x="0"
     y="0"
     style="stroke-width:0.75" />
  <g
     fill="none"
     stroke="#ece0e0"
     transform="matrix(40.923788,0,0,40.923788,276.22688,-30.814092)"
     id="g246">
    <path
       d="M 1,1 7,7 0,14 M 0,4 7,11 1,17"
       id="path242" />
    <path
       d="m 15,1 -6,6 7,7 m 0,-10 -7,7 6,6"
       stroke-width="0.5"
       id="path244" />
  </g>
  <path
     fill="none"
     stroke="#402020"
     stroke-width="6"
     d="M 230,60 H 60 V 230 M 970,60 h 170 v 170 m 0,215 v 170 H 970 M 60,445 v 170 h 170"
     id="path248" />
  <path
     fill="#402020"
     d="m 373.91972,633.4715 h 25.39604 c 19.28218,0 31.9802,-8.4653 31.9802,-25.0433 0,-11.7574 -7.28961,-18.6943 -18.34158,-20.5755 v -0.5878 c 8.58291,-2.5867 13.16831,-9.8763 13.16831,-18.6944 0,-14.46159 -11.28713,-20.8106 -28.57054,-20.8106 h -23.63243 z m 7.05446,-48.323 v -31.62746 h 15.0495 c 15.16708,0 23.04455,4.23268 23.04455,15.87256 0,9.7586 -6.8193,15.7549 -23.74999,15.7549 z m 0,42.4443 v -36.8007 h 16.69554 c 17.04827,0 26.68936,5.6435 26.68936,17.6361 0,13.2859 -10.11139,19.1646 -26.68936,19.1646 z"
     id="path250" />
  <path
     fill="#402020"
     d="m 459.09186,635 c 2.23392,0 3.40965,-0.3527 4.5854,-0.7055 l -1.05817,-5.4084 c -1.29332,0.2351 -1.76361,0.2351 -2.23392,0.2351 -1.64603,0 -2.82178,-1.2933 -2.82178,-4.2326 V 540 h -6.8193 v 84.1832 c 0,7.2896 2.70421,10.8168 8.34777,10.8168 z"
     id="path252" />
  <path
     fill="#402020"
     d="m 498.05732,635 c 7.99505,0 15.5198,-4.3502 21.86882,-9.5235 h 0.23509 l 0.70546,7.995 h 5.76118 v -39.7401 c 0,-13.8737 -5.29084,-24.573 -20.22278,-24.573 -10.22896,0 -18.92945,4.9381 -23.74999,8.2302 l 3.05693,4.9381 c 4.35024,-3.292 11.52227,-7.172 19.75247,-7.172 11.875,0 14.57921,9.6411 14.34406,18.9295 -27.62995,3.1745 -39.97525,9.7586 -39.97525,23.6324 0,11.6398 8.11263,17.2834 18.22401,17.2834 z m 1.41089,-5.7611 c -6.93688,0 -12.81559,-3.2921 -12.81559,-11.875 0,-9.6411 8.46535,-15.4023 33.15594,-18.224 v 20.3403 c -7.40718,6.4666 -13.40347,9.7587 -20.34035,9.7587 z"
     id="path254" />
  <path
     fill="#402020"
     d="m 546.5028,633.4715 h 6.8193 v -46.9121 c 7.28961,-7.5247 12.46288,-11.2871 19.7525,-11.2871 9.64108,0 13.75617,5.9963 13.75617,19.047 v 39.1522 h 6.8193 v -40.0928 c 0,-16.1077 -5.99627,-24.2203 -19.04701,-24.2203 -8.58294,0 -15.04952,4.9381 -21.39853,11.1696 h -0.2356 l -0.82308,-9.5235 h -5.64359 z"
     id="path256" />
  <path
     fill="#402020"
     d="m 614.33337,633.4715 h 6.8193 v -16.9307 l 13.52103,-15.9901 20.22279,32.9208 h 7.52475 l -23.75002,-37.8589 20.45793,-24.8081 h -7.7599 l -29.98144,36.9183 h -0.2356 V 540 h -6.8193 z"
     id="path258" />
  <path
     fill="#402020"
     d="m 698.37263,635 c 2.82178,0 6.8193,-1.0582 10.46411,-2.3515 l -1.6459,-5.2908 c -2.2339,0.9406 -5.29085,1.7636 -7.64234,1.7636 -8.34776,0 -10.4641,-5.1733 -10.4641,-13.0508 v -39.5049 h 17.98886 v -5.7611 H 689.0844 v -18.10647 h -5.76113 l -0.82308,18.10647 -9.99382,0.5878 v 5.1733 h 9.75867 v 39.0347 c 0,11.6398 3.76238,19.3997 16.10767,19.3997 z"
     id="path260" />
  <path
     fill="#402020"
     d="m 742.87204,635 c 7.99508,0 15.51981,-4.3502 21.86882,-9.5235 h 0.2356 l 0.70554,7.995 h 5.76112 v -39.7401 c 0,-13.8737 -5.29084,-24.573 -20.22276,-24.573 -10.22896,0 -18.92947,4.9381 -23.74999,8.2302 l 3.05692,4.9381 c 4.35024,-3.292 11.52228,-7.172 19.75247,-7.172 11.875,0 14.57921,9.6411 14.34406,18.9295 -27.62994,3.1745 -39.97523,9.7586 -39.97523,23.6324 0,11.6398 8.11262,17.2834 18.22399,17.2834 z m 1.41082,-5.7611 c -6.9369,0 -12.8156,-3.2921 -12.8156,-11.875 0,-9.6411 8.46533,-15.4023 33.15593,-18.224 v 20.3403 c -7.40719,6.4666 -13.40346,9.7587 -20.34033,9.7587 z"
     id="path262" />
  <path
     fill="#402020"
     d="m 795.27588,633.4715 h 6.81933 V 591.38 c 4.58538,-11.6399 11.28711,-15.755 16.8131,-15.755 2.46898,0 3.64481,0.2351 5.76115,1.0582 l 1.41081,-6.1139 c -1.99879,-1.0582 -3.87995,-1.4109 -6.34901,-1.4109 -7.28961,0 -13.52103,5.4084 -17.75372,13.2859 h -0.2356 l -0.82308,-11.6398 h -5.64358 z"
     id="path264" />
  <text
     id="text1531"
     y="487.22412"
     x="501.96399"
     style="font-style:normal;font-variant:normal;font-weight:normal;font-stretch:normal;font-size:16px;line-height:125%;font-family:IPAexGothic;-inkscape-font-specification:IPAexGothic;letter-spacing:0px;word-spacing:0px;fill:#000000;fill-opacity:1;stroke:none;stroke-width:1px;stroke-linecap:butt;stroke-linejoin:miter;stroke-opacity:1"
     xml:space="preserve"><tspan
       y="487.22412"
       x="501.96399"
       id="tspan1529" /></text>
  <text
     id="text1629"
     y="157.50331"
     x="1529.3223"
     style="font-style:normal;font-variant:normal;font-weight:normal;font-stretch:normal;font-size:16px;line-height:125%;font-family:IPAexGothic;-inkscape-font-specification:IPAexGothic;letter-spacing:0px;word-spacing:0px;fill:#000000;fill-opacity:1;stroke:none;stroke-width:1px;stroke-linecap:butt;stroke-linejoin:miter;stroke-opacity:1"
     xml:space="preserve"><tspan
       y="157.50331"
       x="1529.3223"
       id="tspan1627" /></text>
  <g
     transform="translate(2.3015568,-2.2594792)"
     id="g2594">
    <text
       id="text1491-8-5-9"
       y="182.55559"
       x="282.46793"
       style="font-style:normal;font-variant:normal;font-weight:normal;font-stretch:normal;font-size:86.9526px;line-height:125%;font-family:IPAexGothic;-inkscape-font-specification:IPAexGothic;letter-spacing:0px;word-spacing:0px;fill:#402020;fill-opacity:1;stroke:none;stroke-width:1.16455px;stroke-linecap:butt;stroke-linejoin:miter;stroke-opacity:1"
       xml:space="preserve"><tspan
         style="font-style:normal;font-variant:normal;font-weight:normal;font-stretch:normal;font-size:86.9526px;font-family:'Noto Sans CJK JP';-inkscape-font-specification:'Noto Sans CJK JP';fill:#402020;fill-opacity:1;stroke-width:1.16455px"
         y="182.55559"
         x="282.46793"
         id="tspan1489-5-0-4">Linux</tspan></text>
    <text
       id="text1491-8-5-9-0-9"
       y="492.2363"
       x="545.62408"
       style="font-style:normal;font-variant:normal;font-weight:normal;font-stretch:normal;font-size:94.8934px;line-height:125%;font-family:IPAexGothic;-inkscape-font-specification:IPAexGothic;letter-spacing:0px;word-spacing:0px;fill:#402020;fill-opacity:1;stroke:none;stroke-width:1.2709px;stroke-linecap:butt;stroke-linejoin:miter;stroke-opacity:1"
       xml:space="preserve"><tspan
         style="font-style:normal;font-variant:normal;font-weight:normal;font-stretch:normal;font-size:94.8934px;font-family:'Noto Sans CJK JP';-inkscape-font-specification:'Noto Sans CJK JP';fill:#402020;fill-opacity:1;stroke-width:1.2709px"
         y="492.2363"
         x="545.62408"
         id="tspan1489-5-0-4-7-2">共有</tspan></text>
    <text
       xml:space="preserve"
       style="font-style:normal;font-variant:normal;font-weight:normal;font-stretch:normal;font-size:84.2848px;line-height:125%;font-family:IPAexGothic;-inkscape-font-specification:IPAexGothic;letter-spacing:0px;word-spacing:0px;fill:#402020;fill-opacity:1;stroke:none;stroke-width:1.12882px;stroke-linecap:butt;stroke-linejoin:miter;stroke-opacity:1"
       x="578.50281"
       y="219.4664"
       id="text1491-8-5-9-0-9-7"><tspan
         id="tspan1489-5-0-4-7-2-6"
         x="578.50281"
         y="219.4664"
         style="font-style:normal;font-variant:normal;font-weight:normal;font-stretch:normal;font-size:84.2848px;font-family:'Noto Sans CJK JP';-inkscape-font-specification:'Noto Sans CJK JP';fill:#402020;fill-opacity:1;stroke-width:1.12882px">環境</tspan></text>
    <text
       xml:space="preserve"
       style="font-style:normal;font-variant:normal;font-weight:normal;font-stretch:normal;font-size:41.366px;line-height:125%;font-family:IPAexGothic;-inkscape-font-specification:IPAexGothic;letter-spacing:0px;word-spacing:0px;fill:#402020;fill-opacity:1;stroke:none;stroke-width:0.55401px;stroke-linecap:butt;stroke-linejoin:miter;stroke-opacity:1"
       x="749.8067"
       y="223.96626"
       id="text1491-8-5-9-0-9-2"><tspan
         id="tspan1489-5-0-4-7-2-2"
         x="749.8067"
         y="223.96626"
         style="font-style:normal;font-variant:normal;font-weight:normal;font-stretch:normal;font-size:41.366px;font-family:'Noto Sans CJK JP';-inkscape-font-specification:'Noto Sans CJK JP';fill:#402020;fill-opacity:1;stroke-width:0.55401px">で</tspan></text>
    <text
       xml:space="preserve"
       style="font-style:normal;font-variant:normal;font-weight:normal;font-stretch:normal;font-size:76.6889px;line-height:125%;font-family:IPAexGothic;-inkscape-font-specification:IPAexGothic;letter-spacing:0px;word-spacing:0px;fill:#402020;fill-opacity:1;stroke:none;stroke-width:1.02708px;stroke-linecap:butt;stroke-linejoin:miter;stroke-opacity:1"
       x="608.19373"
       y="367.79852"
       id="text1491-8-5-9-0-9-78"><tspan
         id="tspan1489-5-0-4-7-2-9"
         x="608.19373"
         y="367.79852"
         style="font-style:normal;font-variant:normal;font-weight:normal;font-stretch:normal;font-size:76.6889px;font-family:'Noto Sans CJK JP';-inkscape-font-specification:'Noto Sans CJK JP';fill:#402020;fill-opacity:1;stroke-width:1.02708px">デバイス</tspan></text>
    <text
       id="text1491-8-5-9-0-9-78-1"
       y="387.03961"
       x="486.98218"
       style="font-style:normal;font-variant:normal;font-weight:normal;font-stretch:normal;font-size:68.3774px;line-height:125%;font-family:IPAexGothic;-inkscape-font-specification:IPAexGothic;letter-spacing:0px;word-spacing:0px;fill:#402020;fill-opacity:1;stroke:none;stroke-width:0.915768px;stroke-linecap:butt;stroke-linejoin:miter;stroke-opacity:1"
       xml:space="preserve"><tspan
         style="font-style:normal;font-variant:normal;font-weight:normal;font-stretch:normal;font-size:68.3774px;font-family:'Noto Sans CJK JP';-inkscape-font-specification:'Noto Sans CJK JP';fill:#402020;fill-opacity:1;stroke-width:0.915768px"
         y="387.03961"
         x="486.98218"
         id="tspan1489-5-0-4-7-2-9-7">BLE</tspan></text>
    <text
       xml:space="preserve"
       style="font-style:normal;font-variant:normal;font-weight:normal;font-stretch:normal;font-size:37.3509px;line-height:125%;font-family:IPAexGothic;-inkscape-font-specification:IPAexGothic;letter-spacing:0px;word-spacing:0px;fill:#402020;fill-opacity:1;stroke:none;stroke-width:0.500236px;stroke-linecap:butt;stroke-linejoin:miter;stroke-opacity:1"
       x="453.14996"
       y="368.35815"
       id="text1491-8-5-9-0-9-78-1-5"><tspan
         id="tspan1489-5-0-4-7-2-9-7-0"
         x="453.14996"
         y="368.35815"
         style="font-style:normal;font-variant:normal;font-weight:normal;font-stretch:normal;font-size:37.3509px;font-family:'Noto Sans CJK JP';-inkscape-font-specification:'Noto Sans CJK JP';fill:#402020;fill-opacity:1;stroke-width:0.500236px">や</tspan></text>
    <text
       xml:space="preserve"
       style="font-style:normal;font-variant:normal;font-weight:normal;font-stretch:normal;font-size:37.0989px;line-height:125%;font-family:IPAexGothic;-inkscape-font-specification:IPAexGothic;letter-spacing:0px;word-spacing:0px;fill:#402020;fill-opacity:1;stroke:none;stroke-width:0.49686px;stroke-linecap:butt;stroke-linejoin:miter;stroke-opacity:1"
       x="909.39398"
       y="367.79208"
       id="text1491-8-5-9-0-9-8"><tspan
         id="tspan1489-5-0-4-7-2-20"
         x="909.39398"
         y="367.79208"
         style="font-style:normal;font-variant:normal;font-weight:normal;font-stretch:normal;font-size:37.0989px;font-family:'Noto Sans CJK JP';-inkscape-font-specification:'Noto Sans CJK JP';fill:#402020;fill-opacity:1;stroke-width:0.49686px">を</tspan></text>
    <text
       xml:space="preserve"
       style="font-style:normal;font-variant:normal;font-weight:normal;font-stretch:normal;font-size:71.0889px;line-height:125%;font-family:IPAexGothic;-inkscape-font-specification:IPAexGothic;letter-spacing:0px;word-spacing:0px;fill:#402020;fill-opacity:1;stroke:none;stroke-width:0.952087px;stroke-linecap:butt;stroke-linejoin:miter;stroke-opacity:1"
       x="281.22171"
       y="330.39542"
       id="text1491-8-5-9-0-9-78-1-2"><tspan
         id="tspan1489-5-0-4-7-2-9-7-9"
         x="281.22171"
         y="330.39542"
         style="font-style:normal;font-variant:normal;font-weight:normal;font-stretch:normal;font-size:71.0889px;font-family:'Noto Sans CJK JP';-inkscape-font-specification:'Noto Sans CJK JP';fill:#402020;fill-opacity:1;stroke-width:0.952087px">Bluetooth</tspan></text>
    <text
       xml:space="preserve"
       style="font-style:normal;font-variant:normal;font-weight:normal;font-stretch:normal;font-size:67.6867px;line-height:125%;font-family:IPAexGothic;-inkscape-font-specification:IPAexGothic;letter-spacing:0px;word-spacing:0px;fill:#402020;fill-opacity:1;stroke:none;stroke-width:0.906519px;stroke-linecap:butt;stroke-linejoin:miter;stroke-opacity:1"
       x="288.98477"
       y="235.72789"
       id="text1491-8-5-9-0"><tspan
         id="tspan1489-5-0-4-0"
         x="288.98477"
         y="235.72789"
         style="font-style:normal;font-variant:normal;font-weight:normal;font-stretch:normal;font-size:67.6867px;font-family:'Noto Sans CJK JP';-inkscape-font-specification:'Noto Sans CJK JP';fill:#402020;fill-opacity:1;stroke-width:0.906519px">Windows</tspan></text>
    <text
       id="text1491-8-5-9-0-9-2-6"
       y="182.45186"
       x="497.45242"
       style="font-style:normal;font-variant:normal;font-weight:normal;font-stretch:normal;font-size:37.7589px;line-height:125%;font-family:IPAexGothic;-inkscape-font-specification:IPAexGothic;letter-spacing:0px;word-spacing:0px;fill:#402020;fill-opacity:1;stroke:none;stroke-width:0.5057px;stroke-linecap:butt;stroke-linejoin:miter;stroke-opacity:1"
       xml:space="preserve"><tspan
         style="font-style:normal;font-variant:normal;font-weight:normal;font-stretch:normal;font-size:37.7589px;font-family:'Noto Sans CJK JP';-inkscape-font-specification:'Noto Sans CJK JP';fill:#402020;fill-opacity:1;stroke-width:0.5057px"
         y="182.45186"
         x="497.45242"
         id="tspan1489-5-0-4-7-2-2-4">と</tspan></text>
    <text
       id="text1491-8-5-9-0-9-8-7"
       y="497.86682"
       x="723.38159"
       style="font-style:normal;font-variant:normal;font-weight:normal;font-stretch:normal;font-size:37.0989px;line-height:125%;font-family:IPAexGothic;-inkscape-font-specification:IPAexGothic;letter-spacing:0px;word-spacing:0px;fill:#402020;fill-opacity:1;stroke:none;stroke-width:0.49686px;stroke-linecap:butt;stroke-linejoin:miter;stroke-opacity:1"
       xml:space="preserve"><tspan
         style="font-style:normal;font-variant:normal;font-weight:normal;font-stretch:normal;font-size:37.0989px;font-family:'Noto Sans CJK JP';-inkscape-font-specification:'Noto Sans CJK JP';fill:#402020;fill-opacity:1;stroke-width:0.49686px"
         y="497.86682"
         x="723.38159"
         id="tspan1489-5-0-4-7-2-20-2">する方法</tspan></text>
  </g>
</svg>
